<svg enable-background="new 0 0 750 750" viewBox="0 0 750 750" xmlns="http://www.w3.org/2000/svg"><path d="m695.6 241.2c-17.7-41.9-43-79.4-75.3-111.7s-69.9-57.6-111.7-75.3c-43.3-18.3-89.4-27.6-136.8-27.6s-93.5 9.3-136.8 27.6c-41.9 17.7-79.4 43-111.7 75.3s-57.6 69.9-75.3 111.7c-18.5 43.3-27.7 89.4-27.7 136.8s9.3 93.5 27.6 136.8c17.7 41.9 43 79.4 75.3 111.7s69.9 57.6 111.7 75.3c43.3 18.3 89.4 27.6 136.8 27.6s93.5-9.3 136.8-27.6c41.9-17.7 79.4-43 111.7-75.3s57.6-69.9 75.3-111.7c18.3-43.3 27.6-89.4 27.6-136.8s-9.1-93.5-27.5-136.8zm-323.8 448.3c-76.7 0-147-27.9-201.3-74 8.2-103.9 95.3-186 201.3-186s193.2 82.1 201.3 186c-54.4 46.1-124.7 74-201.3 74zm-101-398.4c0-55.7 45.3-101 101-101s101 45.3 101 101-45.3 101-101 101-101-45.3-101-101zm335.4 291.8c-9.3-45.4-31.7-87.1-65.2-120.7-26.1-26.1-57.1-45.4-91-57.1 36.3-25 60.1-66.8 60.1-114 0-76.3-62.1-138.4-138.4-138.4s-138.4 62.1-138.4 138.4c0 47.3 23.8 89.1 60.1 114-33.9 11.7-64.9 31-91 57.1-33.5 33.5-55.9 75.3-65.2 120.7-48-54.8-77.1-126.5-77.1-204.9.2-171.8 139.9-311.5 311.7-311.5s311.5 139.7 311.5 311.5c0 78.4-29.2 150.1-77.1 204.9z"/></svg>