<svg enable-background="new 0 0 310 80" viewBox="0 0 310 80" xmlns="http://www.w3.org/2000/svg"><path d="m32.66 19.49v14.79h-6.27c-5.72 0-8.12 2.51-8.12 8.49v23.86h-16.16v-46.92h10.83l2.52 5.21c3.31-3.83 7.34-5.43 12.92-5.43z"/><path d="m165.7 19.71h16.16v46.92h-16.16z"/><path d="m161.5 37.2v29.43h-16.16v-27.43c0-4.9-1.8-7.26-5.24-7.26-4.44 0-6.72 3.06-6.72 8.97v25.72h-15.74v-27.43c0-4.75-1.79-7.26-5.17-7.26-4.38 0-6.78 3.13-6.78 8.97v25.72h-16.15v-46.92h11.36l2.3 5.04c3.39-3.95 8.31-6.43 13.71-6.43 5.72 0 10.54 2.57 13.46 6.91 3.37-4.24 8.57-6.91 14.41-6.91 10.05 0 16.72 7.83 16.72 18.88z"/><path d="m85.6 42.72c0 1.41-.12 2.83-.33 4.28h-34.84c1.06 5.38 4.48 8.16 9.58 8.16 3.77 0 6.93-1.65 8.48-4.4h16.08c-3.3 10.71-12.79 17.4-24.56 17.4-14.64 0-25.48-10.7-25.48-25.03 0-14.38 10.76-24.96 25.48-24.96 15.12 0 25.59 10.79 25.59 24.55zm-34.88-4.67h18.97c-1.42-4.69-4.8-7.22-9.67-7.22-4.72 0-8 2.56-9.3 7.22z"/><path d="m308.22 42.72c0 1.41-.12 2.83-.33 4.28h-34.84c1.06 5.38 4.48 8.16 9.58 8.16 3.77 0 6.93-1.65 8.48-4.4h16.08c-3.3 10.71-12.79 17.4-24.56 17.4-14.64 0-25.48-10.7-25.48-25.03 0-14.38 10.76-24.96 25.48-24.96 15.12 0 25.59 10.79 25.59 24.55zm-34.88-4.67h18.97c-1.42-4.69-4.8-7.22-9.67-7.22-4.72 0-7.99 2.56-9.3 7.22z"/><circle cx="173.7" cy="8.21" r="7.89"/><path d="m165.7 19.71 8.08 11.22 8.08-11.22z" fill="#383838"/><g fill="#ff7d19"><path d="m217.78 62.17c3.33-2.28 5.22-5.67 5.22-9.82 0-.4-.02-.78-.04-1.15h-9.41c.07 4.38 1.55 8.13 4.23 10.97z"/><path d="m218.03 43.36c.77.72 1.63 1.33 2.55 1.85-.71-.74-1.56-1.34-2.55-1.85z"/><path d="m217.11 24.89c-1.44 1.83-2.38 3.98-2.75 6.4h7.29c-.72-2.63-2.28-4.8-4.54-6.4z"/><path d="m237.74 37.15c-4.46-.8-8.05-1.42-8.05-4.09 0-2.17 1.74-3.46 4.33-3.46 2.93 0 4.94 1.39 4.94 4.39h15.13c-.18-9.51-7.93-15.86-19.87-15.86-4.76 0-8.88.95-12.14 2.69 3.92 3.31 6.22 7.99 6.32 13.57l.06 3.22h-7.9c3.83 1.89 7.14 4.99 8.3 10.37.76.15 1.51.27 2.24.39 4.51.75 8.06 1.52 8.06 4.22 0 2.42-2.24 3.63-4.6 3.63-2.55 0-4.63-1.1-5.26-3.45-.1 5.09-2.06 9.42-5.47 12.66l-.6.54c-.01.01-.01.01-.02.02 3.06 1.39 6.77 2.15 11.05 2.15 12.47 0 20.74-6.42 20.74-16.22 0-11.91-9.85-13.45-17.26-14.77z"/></g><path d="m205.42 68.57c-12.79 0-20.56-6.75-20.71-16.92h15.56c0 3.43 2.39 5.01 5.45 5.01 2.36 0 4.6-1.21 4.6-3.63 0-2.71-3.55-3.48-8.06-4.22-7.27-1.18-16.92-3.37-16.92-14.75 0-9.4 8.01-15.48 20.04-15.48 11.95 0 19.69 6.36 19.87 15.86h-15.13c0-3-2.01-4.39-4.94-4.39-2.59 0-4.33 1.28-4.33 3.46 0 2.67 3.59 3.29 8.05 4.09 7.41 1.32 17.27 2.86 17.27 14.75-.01 9.81-8.28 16.23-20.75 16.22z"/><path d="m253.16 64.21c-3.5 4.79-10.04 7.62-18.43 7.62-.99 0-1.94-.05-2.87-.12v8.53c17.73.89 28.95-5.63 32.54-16.03z" fill="#ff7d19"/></svg>